# Blender v3.5.0 OBJ File: 'hammer.blend'
# www.blender.org
mtllib hammer.mtl
o Cube
v -0.053110 11.760328 -0.591785
v -0.055169 -1.540216 -0.458916
v -0.066409 8.965694 0.937802
v -0.058837 -1.535939 -0.030781
v -0.459920 11.760357 -0.595271
v -0.461979 -1.540189 -0.462402
v -0.473219 8.965721 0.934316
v -0.465647 -1.535911 -0.034266
v -0.053838 7.057507 -0.544805
v -0.473729 5.667721 0.967262
v -0.066919 5.667694 0.970748
v -0.460648 7.057535 -0.548291
v -0.054202 4.706095 -0.521315
v -0.067174 4.018692 0.987221
v -0.461012 4.706123 -0.524801
v -0.473984 4.018719 0.983735
v -0.054384 3.530392 -0.509570
v -0.058106 3.183465 -0.077926
v -0.461194 3.530419 -0.513056
v -0.464916 3.183494 -0.081412
vt 0.727261 0.548397
vt 0.751717 0.369840
vt 0.751717 0.548397
vt 0.727261 0.173020
vt 0.751717 0.173020
vt 0.314098 0.243516
vt 0.404368 0.357329
vt 0.314098 0.441783
vt 0.925391 0.505476
vt 0.900935 0.531215
vt 0.900935 0.505476
vt 0.164879 0.591479
vt 0.074609 0.705292
vt 0.074609 0.507026
vt 0.578042 0.874199
vt 0.553586 0.591479
vt 0.578042 0.591479
vt 0.553586 0.450119
vt 0.578042 0.450119
vt 0.164879 0.450119
vt 0.074609 0.407893
vt 0.404368 0.498689
vt 0.314098 0.540916
vt 0.727261 0.074609
vt 0.751717 0.074609
vt 0.751717 0.762146
vt 0.727261 0.697615
vt 0.751717 0.697615
vt 0.404368 0.569369
vt 0.378629 0.590482
vt 0.164879 0.379439
vt 0.139140 0.358326
vt 0.553586 0.379439
vt 0.578042 0.379439
vt 0.553586 0.074609
vt 0.578042 0.074609
vt 0.164880 0.074609
vt 0.139140 0.074609
vt 0.404368 0.874199
vt 0.378629 0.874199
vt 0.925391 0.356257
vt 0.900935 0.074609
vt 0.925391 0.074609
vt 0.727261 0.369840
vt 0.404368 0.074609
vt 0.925391 0.531215
vt 0.164879 0.874199
vt 0.553586 0.874199
vt 0.727261 0.762146
vt 0.900935 0.356257
vn -0.0075 0.4801 0.8772
vn -0.0086 0.0100 0.9999
vn -1.0000 0.0001 -0.0086
vn -0.0002 -1.0000 0.0100
vn 1.0000 -0.0001 0.0086
vn 0.0086 -0.0100 -0.9999
vn -0.0053 -0.7869 0.6170
usemtl Material
s off
f 5/1/1 3/2/1 1/3/1
f 3/2/2 10/4/2 11/5/2
f 7/6/3 12/7/3 10/8/3
f 2/9/4 8/10/4 6/11/4
f 9/12/5 3/13/5 11/14/5
f 5/15/6 9/16/6 12/17/6
f 12/17/6 13/18/6 15/19/6
f 13/20/5 11/14/5 14/21/5
f 10/8/3 15/22/3 16/23/3
f 11/5/2 16/24/2 14/25/2
f 14/26/7 20/27/7 18/28/7
f 16/23/3 19/29/3 20/30/3
f 17/31/5 14/21/5 18/32/5
f 15/19/6 17/33/6 19/34/6
f 19/34/6 2/35/6 6/36/6
f 2/37/5 18/32/5 4/38/5
f 20/30/3 6/39/3 8/40/3
f 18/41/2 8/42/2 4/43/2
f 5/1/1 7/44/1 3/2/1
f 3/2/2 7/44/2 10/4/2
f 7/6/3 5/45/3 12/7/3
f 2/9/4 4/46/4 8/10/4
f 9/12/5 1/47/5 3/13/5
f 5/15/6 1/48/6 9/16/6
f 12/17/6 9/16/6 13/18/6
f 13/20/5 9/12/5 11/14/5
f 10/8/3 12/7/3 15/22/3
f 11/5/2 10/4/2 16/24/2
f 14/26/7 16/49/7 20/27/7
f 16/23/3 15/22/3 19/29/3
f 17/31/5 13/20/5 14/21/5
f 15/19/6 13/18/6 17/33/6
f 19/34/6 17/33/6 2/35/6
f 2/37/5 17/31/5 18/32/5
f 20/30/3 19/29/3 6/39/3
f 18/41/2 20/50/2 8/42/2
