# Blender v3.5.0 OBJ File: ''
# www.blender.org
mtllib playerHead.mtl
o head_立方体
v 0.564917 0.859832 -0.538629
v 0.538629 -0.244027 0.564917
v 0.564917 -0.244027 -0.538629
v 0.538629 0.859832 0.564917
v -0.564917 -0.244027 0.538629
v -0.564917 0.859832 0.538629
v -0.538629 -0.244027 -0.564917
v -0.538629 0.859832 -0.564917
vt 0.776872 0.379830
vt 0.612775 0.215733
vt 0.776872 0.215733
vt 0.776872 0.776872
vt 0.612775 0.612775
vt 0.776872 0.612775
vt 0.578351 0.585746
vt 0.414254 0.421649
vt 0.578351 0.421649
vt 0.379830 0.644938
vt 0.215733 0.480841
vt 0.379830 0.480842
vt 0.181309 0.488253
vt 0.017212 0.652350
vt 0.017212 0.488253
vt 0.776872 0.017212
vt 0.612775 0.181309
vt 0.612775 0.017212
vt 0.612775 0.379830
vt 0.612775 0.776872
vt 0.414254 0.585746
vt 0.215733 0.644938
vt 0.181309 0.652350
vt 0.776872 0.181309
vn 0.9997 0.0000 0.0238
vn -0.0238 -0.0000 0.9997
vn -0.9997 -0.0000 -0.0238
vn 0.0238 0.0000 -0.9997
vn 0.0000 -1.0000 -0.0000
vn -0.0000 1.0000 0.0000
usemtl Material.001
s 1
f 1/1/1 2/2/1 3/3/1
f 4/4/2 5/5/2 2/6/2
f 6/7/3 7/8/3 5/9/3
f 8/10/4 3/11/4 7/12/4
f 5/13/5 3/14/5 2/15/5
f 4/16/6 8/17/6 6/18/6
f 1/1/1 4/19/1 2/2/1
f 4/4/2 6/20/2 5/5/2
f 6/7/3 8/21/3 7/8/3
f 8/10/4 1/22/4 3/11/4
f 5/13/5 7/23/5 3/14/5
f 4/16/6 1/24/6 8/17/6
