# Blender v3.5.0 OBJ File: 'float_character.blend'
# www.blender.org
mtllib float_Body.mtl
o body_立方体.001
v 0.314059 -0.344947 0.551929
v 0.554144 -1.447849 0.551929
v 0.314059 -0.344947 -0.551929
v 0.554144 -1.447849 -0.551929
v -0.318497 -0.347490 0.551929
v -0.549706 -1.452287 0.551929
v -0.318497 -0.347490 -0.551929
v -0.549706 -1.452287 -0.551929
vt 0.578351 0.387225
vt 0.414254 0.219431
vt 0.578351 0.219431
vt 0.578351 0.620170
vt 0.414254 0.749236
vt 0.414254 0.655201
vt 0.578351 0.185006
vt 0.414254 0.017212
vt 0.578351 0.017212
vt 0.379830 0.679363
vt 0.215733 0.808428
vt 0.215733 0.714393
vt 0.706810 0.811296
vt 0.612775 0.975393
vt 0.612775 0.811296
vt 0.776872 0.414254
vt 0.612775 0.578351
vt 0.612775 0.414254
vt 0.414254 0.387225
vt 0.578351 0.784267
vt 0.414254 0.185006
vt 0.379830 0.843459
vt 0.706810 0.975393
vt 0.776872 0.578351
vn 0.9771 0.2127 0.0000
vn 0.0000 0.0000 -1.0000
vn -0.9788 0.2048 0.0000
vn -0.0000 0.0000 1.0000
vn -0.0040 1.0000 0.0000
vn 0.0040 -1.0000 0.0000
usemtl Material
s off
f 2/1/1 3/2/1 1/3/1
f 4/4/2 7/5/2 3/6/2
f 8/7/3 5/8/3 7/9/3
f 6/10/4 1/11/4 5/12/4
f 7/13/5 1/14/5 3/15/5
f 4/16/6 6/17/6 8/18/6
f 2/1/1 4/19/1 3/2/1
f 4/4/2 8/20/2 7/5/2
f 8/7/3 6/21/3 5/8/3
f 6/10/4 2/22/4 1/11/4
f 7/13/5 5/23/5 1/14/5
f 4/16/6 2/24/6 6/17/6
